HIERARCHY
ROOT Hips
{
	OFFSET	0.00	0.00	0.00
	CHANNELS 6 Xposition Yposition Zposition Zrotation Xrotation Yrotation
	JOINT LeftUpLeg
	{
		OFFSET	 0.126116	-0.014019	-0.065224
		CHANNELS 3 Zrotation Xrotation Yrotation
		JOINT LeftLeg
		{
			OFFSET	 0.000000	 0.000000	 0.569914
			CHANNELS 3 Zrotation Xrotation Yrotation
			JOINT LeftFoot
			{
				OFFSET	 0.000000	 0.000000	 0.544423
				CHANNELS 3 Zrotation Xrotation Yrotation
				JOINT LeftToeBase
				{
					OFFSET	 0.000000	 0.000000	 0.207117
					CHANNELS 3 Zrotation Xrotation Yrotation
					End Site
					{
						OFFSET	 0.000000	 0.000000	 0.207117
					}
				}
			}
		}
	}
	JOINT RightUpLeg
	{
		OFFSET	-0.124023	-0.008373	-0.065224
		CHANNELS 3 Zrotation Xrotation Yrotation
		JOINT RightLeg
		{
			OFFSET	 0.000000	 0.000000	 0.570047
			CHANNELS 3 Zrotation Xrotation Yrotation
			JOINT RightFoot
			{
				OFFSET	 0.000000	 0.000000	 0.544354
				CHANNELS 3 Zrotation Xrotation Yrotation
				JOINT RightToeBase
				{
					OFFSET	 0.000000	 0.000000	 0.207540
					CHANNELS 3 Zrotation Xrotation Yrotation
					End Site
					{
						OFFSET	 0.000000	 0.000000	 0.207540
					}
				}
			}
		}
	}
	JOINT Spine
	{
		OFFSET	 0.000184	-0.007763	 0.117403
		CHANNELS 3 Zrotation Xrotation Yrotation
		JOINT Spine1
		{
			OFFSET	 0.000000	 0.000000	 0.137269
			CHANNELS 3 Zrotation Xrotation Yrotation
			JOINT Spine2
			{
				OFFSET	 0.000000	 0.000000	 0.156879
				CHANNELS 3 Zrotation Xrotation Yrotation
				JOINT LeftShoulder
				{
					OFFSET	 0.080501	-0.002496	 0.160144
					CHANNELS 3 Zrotation Xrotation Yrotation
					JOINT LeftArm
					{
						OFFSET	 0.000000	 0.000000	 0.164363
						CHANNELS 3 Zrotation Xrotation Yrotation
						JOINT LeftForeArm
						{
							OFFSET	 0.000000	 0.000000	 0.364576
							CHANNELS 3 Zrotation Xrotation Yrotation
							JOINT LeftHand
							{
								OFFSET	 0.000000	 0.000000	 0.360812
								CHANNELS 3 Zrotation Xrotation Yrotation
								JOINT LeftHandIndex1
								{
									OFFSET	 0.000000	 0.000000	 0.086006
									CHANNELS 3 Zrotation Xrotation Yrotation
									JOINT LeftHandIndex2
									{
										OFFSET	 0.000000	 0.000000	 0.047237
										CHANNELS 3 Zrotation Xrotation Yrotation
										JOINT LeftHandIndex3
										{
											OFFSET	-0.004284	-0.000551	 0.038165
											CHANNELS 3 Zrotation Xrotation Yrotation
											End Site
											{
												OFFSET	-0.004284	-0.000551	 0.038165
											}
										}
									}
								}
							}
						}
					}
				}
				JOINT Neck
				{
					OFFSET	 0.000000	 0.000000	 0.176489
					CHANNELS 3 Zrotation Xrotation Yrotation
					JOINT Head
					{
						OFFSET	 0.000000	-0.001747	 0.077940
						CHANNELS 3 Zrotation Xrotation Yrotation
						End Site
						{
							OFFSET	 0.000000	-0.001747	 0.077940
						}
					}
				}
				JOINT RightShoulder
				{
					OFFSET	-0.080363	 0.000306	 0.159706
					CHANNELS 3 Zrotation Xrotation Yrotation
					JOINT RightArm
					{
						OFFSET	 0.000000	 0.000000	 0.164196
						CHANNELS 3 Zrotation Xrotation Yrotation
						JOINT RightForeArm
						{
							OFFSET	 0.000000	 0.000000	 0.365611
							CHANNELS 3 Zrotation Xrotation Yrotation
							JOINT RightHand
							{
								OFFSET	 0.000000	 0.000000	 0.360648
								CHANNELS 3 Zrotation Xrotation Yrotation
								JOINT RightHandIndex1
								{
									OFFSET	 0.000000	 0.000000	 0.069977
									CHANNELS 3 Zrotation Xrotation Yrotation
									JOINT RightHandIndex2
									{
										OFFSET	 0.000000	 0.000000	 0.052305
										CHANNELS 3 Zrotation Xrotation Yrotation
										JOINT RightHandIndex3
										{
											OFFSET	 0.009002	-0.000782	 0.042196
											CHANNELS 3 Zrotation Xrotation Yrotation
											End Site
											{
												OFFSET	 0.009002	-0.000782	 0.042196
											}
										}
									}
								}
							}
						}
					}
				}
			}
		}
	}
}
MOTION
Frames:    9
Frame Time: 0.03333334
-0.413024	 0.200667	 1.220852	-176.652500	 8.213461	 13.991440	 33.572500	-11.523000	 170.125900	-8.703693	-43.611370	-6.420021	 146.687800	 74.496910	-160.084900	-2.385833	 28.452760	 0.000004	-23.648700	-38.819420	 156.159600	 5.800916	-52.586090	 3.400414	-7.641782	 77.405740	 25.063320	 2.384659	 28.388700	-0.000001	 43.366970	-19.823780	 4.928637	 46.685680	 19.542330	 16.018490	-10.335570	-2.159906	-18.562930	-91.776180	 78.527330	-180.000000	-1.842572	 45.208950	-7.570827	-1.798431	-3.062476	-86.489780	 4.215549	-26.614180	-0.764565	-4.130319	 21.525730	 0.991547	-5.167930	 0.731704	 3.519349	-1.378229	 35.397820	-2.634230	-18.309790	 7.202302	 7.644694	-24.144690	-21.592920	-15.801120	 89.782100	 78.203870	 180.000000	 61.591200	-2.904465	-15.880190	-14.884270	-9.873146	 47.817810	-35.768660	-1.501767	-85.651640	 5.716227	 19.173190	-3.685159	 5.027444	 0.246877	-9.377972	-2.350882	 35.473990	 5.254307
-0.415435	 0.205506	 1.222038	-176.118800	 8.017878	 13.608770	 34.040360	-10.424000	 170.100300	-8.603706	-42.594830	-6.231833	 146.472000	 74.827890	-159.741400	-2.385833	 28.452760	 0.000004	-23.228220	-38.344350	 157.106100	 6.094307	-52.579150	 3.633624	-7.183333	 77.849370	 24.146790	 2.384659	 28.388700	-0.000001	 42.021630	-18.924960	 4.652219	 45.541240	 18.771970	 16.876880	-9.965484	-1.881892	-18.304410	-91.776160	 78.527360	 180.000000	-3.124350	 44.242160	-4.752500	-1.832345	-3.119863	-87.175190	 4.513991	-26.963550	-0.664086	-4.130319	 21.525730	 0.991547	-5.167930	 0.731704	 3.519349	-1.378229	 35.397820	-2.634230	-17.928580	 7.610135	 7.589594	-24.046190	-22.158840	-15.887730	 89.782120	 78.203920	 180.000000	 62.233560	-6.653367	-16.637570	-14.170720	-9.332340	 48.662840	-39.392330	 0.769716	-82.180390	 5.716227	 19.173190	-3.685159	 5.027444	 0.246877	-9.377972	-2.350882	 35.473990	 5.254307
-0.417444	 0.209399	 1.223027	-175.693100	 7.829350	 13.120900	 34.402560	-9.344947	 170.226900	-8.591694	-41.667080	-6.113997	 146.214600	 74.957900	-159.322700	-2.385833	 28.452760	 0.000004	-22.620310	-38.070130	 158.126300	 6.233768	-52.617770	 3.746576	-6.108678	 78.160220	 22.751590	 2.384659	 28.388700	-0.000001	 41.000980	-18.062550	 4.575915	 44.618310	 18.153820	 17.545050	-9.675522	-1.658887	-18.069170	-91.776130	 78.527380	 180.000000	-4.172510	 43.446400	-2.531483	-1.861009	-3.161334	-87.730020	 4.746391	-27.321420	-0.575636	-4.130319	 21.525730	 0.991547	-5.167930	 0.731704	 3.519349	-1.378229	 35.397820	-2.634230	-17.674630	 7.798539	 7.735713	-23.929210	-22.347350	-16.209480	 89.782170	 78.203870	 179.999900	 62.109580	-9.555143	-16.974320	-13.736540	-8.804140	 48.602500	-41.878010	 1.796670	-79.391330	 5.716227	 19.173190	-3.685159	 5.027444	 0.246877	-9.377972	-2.350882	 35.473990	 5.254307
-0.419756	 0.213459	 1.224131	-175.278900	 7.601686	 12.259690	 34.755640	-7.872685	 170.699100	-8.700749	-40.480920	-6.043365	 145.683500	 74.823520	-158.506700	-2.385833	 28.452760	 0.000004	-21.462040	-38.030970	 159.691000	 6.183349	-52.738290	 3.712345	-3.636300	 78.355440	 20.037950	 2.384659	 28.388700	-0.000001	 40.081470	-16.954560	 4.837968	 43.638140	 17.520940	 18.199520	-9.391872	-1.422392	-17.801550	-91.776190	 78.527350	-180.000000	-5.344006	 42.590320	-0.292621	-1.889725	-3.193820	-88.268970	 4.957532	-27.834090	-0.474778	-4.130319	 21.525730	 0.991547	-5.167930	 0.731704	 3.519349	-1.378229	 35.397820	-2.634230	-17.523920	 7.715813	 8.262580	-23.737230	-22.017930	-17.033430	 89.782100	 78.203870	 180.000000	 61.583260	-12.310650	-16.888530	-13.473290	-8.179075	 47.524830	-44.116180	 2.226734	-76.690480	 5.716227	 19.173190	-3.685159	 5.027444	 0.246877	-9.377972	-2.350882	 35.473990	 5.254307
-0.421239	 0.216379	 1.224989	-174.857100	 7.330147	 11.680600	 35.039740	-6.736450	 170.903100	-8.787122	-39.447530	-5.971376	 145.234900	 74.773090	-157.835800	-2.385833	 28.452760	 0.000004	-20.610430	-37.947790	 160.821400	 6.161314	-52.808630	 3.698205	-1.672677	 78.513730	 17.825420	 2.384659	 28.388700	-0.000001	 39.195280	-16.122740	 4.965796	 42.861910	 16.863530	 18.800780	-9.115636	-1.178563	-17.615100	-91.776220	 78.527350	-180.000000	-6.400095	 42.180850	 1.523500	-1.917273	-3.170315	-88.753810	 5.129349	-28.369580	-0.401805	-4.130319	 21.525730	 0.991547	-5.167930	 0.731704	 3.519349	-1.378229	 35.397820	-2.634230	-17.335700	 7.674071	 8.478579	-23.530870	-21.946440	-17.226200	 89.782050	 78.203870	-180.000000	 60.248180	-13.759020	-17.199520	-13.250320	-7.867837	 47.305420	-45.704540	 2.176343	-75.557820	 5.716227	 19.173190	-3.685159	 5.027444	 0.246877	-9.377972	-2.350882	 35.473990	 5.254307
-0.422509	 0.219347	 1.225852	-174.297500	 6.965571	 11.363750	 35.339340	-5.722951	 170.742300	-8.873750	-38.411640	-5.894829	 145.328700	 74.727770	-157.710500	-2.385833	 28.452760	 0.000004	-19.934720	-37.650140	 161.667800	 6.175310	-52.818370	 3.709865	 0.123607	 78.874540	 15.669960	 2.384659	 28.388700	-0.000001	 38.033650	-15.370860	 4.780766	 42.091220	 16.086820	 19.499560	-8.785380	-0.898973	-17.454150	-91.776250	 78.527380	-180.000000	-7.640671	 41.974260	 3.569154	-1.949299	-3.056262	-89.307370	 5.292614	-29.092230	-0.354515	-4.130319	 21.525730	 0.991547	-5.167930	 0.731704	 3.519349	-1.378229	 35.397820	-2.634230	-17.037850	 7.676960	 8.290192	-23.242010	-22.223890	-16.522180	 89.782120	 78.203890	 180.000000	 58.858490	-15.002450	-17.545990	-13.214050	-7.769440	 47.093740	-47.247310	 1.720536	-74.446030	 5.716227	 19.173190	-3.685159	 5.027444	 0.246877	-9.377972	-2.350882	 35.473990	 5.254307
-0.423521	 0.221834	 1.226601	-173.792200	 6.665579	 11.137020	 35.627400	-4.914370	 170.550300	-8.964138	-37.516980	-5.834839	 145.045100	 74.723580	-157.255100	-2.385833	 28.452760	 0.000004	-19.317720	-37.408050	 162.340100	 6.133677	-52.807700	 3.676091	 2.126551	 79.170040	 13.338770	 2.384659	 28.388700	-0.000001	 36.982780	-14.779820	 4.597166	 41.461240	 15.373280	 20.102560	-8.470737	-0.582780	-17.327820	-91.776210	 78.527400	-180.000000	-8.791584	 41.833610	 5.333744	-1.974750	-2.925637	-89.775150	 5.443540	-29.790250	-0.322283	-4.130319	 21.525730	 0.991547	-5.167930	 0.731704	 3.519349	-1.378229	 35.397820	-2.634230	-16.767220	 7.677023	 8.194918	-22.998090	-22.399630	-16.079090	 89.782120	 78.203900	 180.000000	 57.650830	-15.932940	-17.825500	-13.220540	-7.708076	 46.841910	-48.579990	 1.204775	-73.603870	 5.716227	 19.173190	-3.685159	 5.027444	 0.246877	-9.377972	-2.350882	 35.473990	 5.254307
-0.424444	 0.224351	 1.227402	-173.238400	 6.400383	 10.993330	 35.980780	-4.225965	 170.263200	-9.087493	-36.630600	-5.792316	 144.087700	 74.762560	-156.156600	-2.385833	 28.452760	 0.000004	-18.612700	-37.182420	 162.923800	 5.984340	-52.749470	 3.554119	 4.983468	 79.454380	 10.107170	 2.384659	 28.388700	-0.000001	 35.810590	-14.284380	 4.339428	 40.856840	 14.589230	 20.737410	-8.096489	-0.124376	-17.227830	-91.776160	 78.527400	 180.000000	-10.126280	 41.750390	 7.173877	-1.997313	-2.730694	-90.232860	 5.614433	-30.640910	-0.308336	-4.130319	 21.525730	 0.991547	-5.167930	 0.731704	 3.519349	-1.378229	 35.397820	-2.634230	-16.467810	 7.674888	 8.232430	-22.770050	-22.460370	-15.964220	 89.782050	 78.203870	-180.000000	 56.589870	-16.776290	-17.967550	-13.316130	-7.680281	 46.356620	-49.975070	 0.623914	-72.768360	 5.716227	 19.173190	-3.685159	 5.027444	 0.246877	-9.377972	-2.350882	 35.473990	 5.254307
-0.425055	 0.226110	 1.228000	-172.829800	 6.216135	 10.889300	 36.220250	-3.752891	 170.059000	-9.214508	-36.002350	-5.783185	 143.130000	 74.826830	-155.084400	-2.385833	 28.452760	 0.000004	-18.043300	-37.023640	 163.346900	 5.829111	-52.680070	 3.427137	 7.430414	 79.617540	 7.388079	 2.384659	 28.388700	-0.000001	 34.941950	-13.920220	 4.146872	 40.431830	 13.988110	 21.201320	-7.799073	 0.268178	-17.150090	-91.776120	 78.527420	 180.000000	-11.133660	 41.684870	 8.457778	-2.009972	-2.556905	-90.533070	 5.736658	-31.296950	-0.316078	-4.130319	 21.525730	 0.991547	-5.167930	 0.731704	 3.519349	-1.378229	 35.397820	-2.634230	-16.254540	 7.720349	 8.356802	-22.609990	-22.450820	-16.119320	 89.782140	 78.203890	 180.000000	 55.649460	-17.326650	-18.019290	-13.398820	-7.617765	 45.796600	-50.928280	 0.135603	-72.295590	 5.716227	 19.173190	-3.685159	 5.027444	 0.246877	-9.377972	-2.350882	 35.473990	 5.254307
